<svg width="640" height="397" viewBox="0 0 640 397" fill="none" xmlns="http://www.w3.org/2000/svg">
<path d="M503.171 64.5782C503.611 64.5782 503.951 64.4382 504.191 64.1582C504.431 63.8716 504.551 63.4882 504.551 63.0082C504.551 62.5216 504.431 62.1382 504.191 61.8582C503.951 61.5716 503.611 61.4282 503.171 61.4282C502.724 61.4282 502.381 61.5716 502.141 61.8582C501.901 62.1382 501.781 62.5216 501.781 63.0082C501.781 63.4882 501.901 63.8716 502.141 64.1582C502.381 64.4382 502.724 64.5782 503.171 64.5782Z" fill="white"/>
<path d="M508.718 72.5782C509.158 72.5782 509.498 72.4382 509.738 72.1582C509.978 71.8716 510.098 71.4882 510.098 71.0082C510.098 70.5216 509.978 70.1382 509.738 69.8582C509.498 69.5716 509.158 69.4282 508.718 69.4282C508.271 69.4282 507.928 69.5716 507.688 69.8582C507.448 70.1382 507.328 70.5216 507.328 71.0082C507.328 71.4882 507.448 71.8716 507.688 72.1582C507.928 72.4382 508.271 72.5782 508.718 72.5782Z" fill="white"/>
<path d="M516.599 72.5782C517.039 72.5782 517.379 72.4382 517.619 72.1582C517.859 71.8716 517.979 71.4882 517.979 71.0082C517.979 70.5216 517.859 70.1382 517.619 69.8582C517.379 69.5716 517.039 69.4282 516.599 69.4282C516.152 69.4282 515.809 69.5716 515.569 69.8582C515.329 70.1382 515.209 70.5216 515.209 71.0082C515.209 71.4882 515.329 71.8716 515.569 72.1582C515.809 72.4382 516.152 72.5782 516.599 72.5782Z" fill="white"/>
<path fill-rule="evenodd" clip-rule="evenodd" d="M559.921 0L577.939 10.5101L581.936 8.51162L611.911 25.5668L594.59 35.9594L622.92 52.0782L622.736 52.1838L639.396 62.076L614.42 77.0616L623.438 82.0716L621.504 83.1793L622.5 83.7461L638.5 93.2461L613.5 108.246L622.5 113.246L567.5 144.746L559 139.746L468 191.746L472.5 195.246L431.735 219.173L474.916 244.993L491.914 234.494L539.44 262.509L549.442 257.508L551.924 258.997L569.933 248.492L577.859 253.587L571.378 257.576L602.431 276.499L610.422 272.003L618.41 276.568L600.727 287.178L602.736 289.186L586.515 298.505L602.5 308.246L610.5 303.746L617.5 307.746L600 318.246L602 320.246L484.5 387.746L482 386.246L463.5 396.746L455 391.246L461.5 386.246L455 382.246L438.5 373.246L431.5 368.746L423.5 373.746L415 368.246L431.5 357.746L429.5 355.746L438 350.746L424.25 342.649L423.416 343.171L413.995 337.075L414.374 336.833L393 324.246L398.5 320.246L309.5 268.746L295 277.746L211.5 229.246L225.5 220.746L134.5 167.746L127 172.246L80 144.246L70.5 149.746L67.5 148.246L49.5 158.746L40.5 153.246L47.5 148.746L41 144.246L42 143.746L25.5 133.746L24 134.746L18 130.246L9.5 135.746L1 130.246L18 119.246L15.5 117.746L32.9461 107.724L25.4332 103.171L23.9034 104.19L17.8993 99.6874L9.42038 105.174L0 99.0782L16.9753 88.0942L14.4329 86.5689L132.926 18.4984L135.427 19.9993L153.947 9.48835L161.324 14.5958L155.871 18.0657L187.401 36.9835L193.893 32.4891L202.87 37.5388L187.202 48.1527L188.211 49.162L179.869 54.56L227.9 83.0782L211.901 92.5777L262.41 122.491L281.908 109.992L303.422 122.501L353.914 93.5053L359.412 96.5042L440.922 48.9988L457.923 58.9994L559.921 0ZM457.003 59.6187L393.42 97.0782L451.92 129.578L464.92 121.578L482.92 132.078L621.728 52.7595L622.165 53.0082L622.173 53.0128L637.445 62.0805L612.421 77.0949L621.403 82.0849L567.424 113L558.924 108L467.024 160.515L471.531 164.02L425.461 191.062L445.974 204.07L425.453 216.582L474.925 246.163L491.926 235.662L539.401 263.647L549.398 258.648L551.917 260.159L569.908 249.664L575.981 253.569L569.463 257.58L602.41 277.658L610.418 273.153L616.431 276.589L599.114 286.979L601.105 288.97L484.426 355.998L481.927 354.499L463.437 364.994L455.786 360.043L462.3 355.032L455.182 350.652L455.171 350.646L438.676 341.648L431.424 336.986L423.425 341.986L415.846 337.082L432.215 326.665L430.231 324.682L438.906 319.578L393.831 293.034L399.336 289.03L309.411 236.995L294.912 245.995L212.399 198.069L226.399 189.569L134.417 135.997L126.919 140.496L79.924 112.498L70.403 118.011L67.4021 116.51L49.4263 126.996L41.3617 122.068L48.321 117.594L41.8993 113.148L42.9544 112.62L25.4076 101.986L23.9374 102.966L17.9415 98.469L9.42038 103.983L1.84077 99.0782L18.8655 88.0622L16.4078 86.5876L132.915 19.658L135.413 21.1571L153.894 10.6681L159.517 14.5607L153.969 18.0907L187.44 38.173L193.948 33.6674L200.971 37.6177L185.639 48.0038L186.629 48.9944L177.972 54.5965L225.941 83.0782L209.94 92.5788L262.431 123.665L281.933 111.164L303.419 123.656L353.927 94.6512L359.429 97.6522L440.919 50.1576L457.003 59.6187ZM491.992 63.0282C491.992 62.3282 492.132 61.7049 492.412 61.1582C492.699 60.6116 493.105 60.1882 493.632 59.8882C494.159 59.5816 494.779 59.4282 495.492 59.4282C496.105 59.4282 496.652 59.5449 497.132 59.7782C497.619 60.0049 498.012 60.3282 498.312 60.7482C498.619 61.1682 498.822 61.6582 498.922 62.2182H496.582C496.475 61.9849 496.322 61.8049 496.122 61.6782C495.929 61.5449 495.705 61.4782 495.452 61.4782C495.079 61.4782 494.782 61.6182 494.562 61.8982C494.349 62.1782 494.242 62.5549 494.242 63.0282C494.242 63.5016 494.349 63.8782 494.562 64.1582C494.782 64.4382 495.079 64.5782 495.452 64.5782C495.705 64.5782 495.929 64.5149 496.122 64.3882C496.322 64.2549 496.475 64.0716 496.582 63.8382H498.922C498.822 64.3982 498.619 64.8882 498.312 65.3082C498.012 65.7282 497.619 66.0549 497.132 66.2882C496.652 66.5149 496.105 66.6282 495.492 66.6282C494.779 66.6282 494.159 66.4782 493.632 66.1782C493.105 65.8716 492.699 65.4449 492.412 64.8982C492.132 64.3516 491.992 63.7282 491.992 63.0282ZM503.171 66.6482C502.504 66.6482 501.891 66.4916 501.331 66.1782C500.778 65.8649 500.338 65.4316 500.011 64.8782C499.685 64.3249 499.521 63.7016 499.521 63.0082C499.521 62.3149 499.685 61.6916 500.011 61.1382C500.338 60.5849 500.778 60.1549 501.331 59.8482C501.891 59.5349 502.504 59.3782 503.171 59.3782C503.838 59.3782 504.448 59.5349 505.001 59.8482C505.555 60.1549 505.991 60.5849 506.311 61.1382C506.638 61.6916 506.801 62.3149 506.801 63.0082C506.801 63.7016 506.638 64.3249 506.311 64.8782C505.991 65.4316 505.551 65.8649 504.991 66.1782C504.438 66.4916 503.831 66.6482 503.171 66.6482ZM516.112 59.4982V66.5782H513.902V63.0482L512.812 66.5782H510.912L509.822 63.0482V66.5782H507.602V59.4982H510.322L511.882 63.7482L513.402 59.4982H516.112ZM519.334 59.4982V66.5782H517.114V59.4982H519.334ZM527.126 66.5782H524.906L522.556 63.0182V66.5782H520.336V59.4982H522.556L524.906 63.1182V59.4982H527.126V66.5782ZM532.469 61.9182C532.383 61.7782 532.259 61.6716 532.099 61.5982C531.939 61.5182 531.746 61.4782 531.519 61.4782C531.093 61.4782 530.763 61.6182 530.529 61.8982C530.296 62.1716 530.179 62.5482 530.179 63.0282C530.179 63.5816 530.309 63.9949 530.569 64.2682C530.829 64.5416 531.229 64.6782 531.769 64.6782C532.283 64.6782 532.696 64.4716 533.009 64.0582H531.239V62.4882H534.849V64.7082C534.543 65.2349 534.119 65.6882 533.579 66.0682C533.039 66.4416 532.356 66.6282 531.529 66.6282C530.796 66.6282 530.156 66.4782 529.609 66.1782C529.069 65.8716 528.653 65.4449 528.359 64.8982C528.073 64.3516 527.929 63.7282 527.929 63.0282C527.929 62.3282 528.073 61.7049 528.359 61.1582C528.653 60.6116 529.069 60.1882 529.609 59.8882C530.149 59.5816 530.783 59.4282 531.509 59.4282C532.436 59.4282 533.189 59.6516 533.769 60.0982C534.356 60.5449 534.703 61.1516 534.809 61.9182H532.469ZM501.788 74.6482C500.941 74.6482 500.241 74.4516 499.688 74.0582C499.141 73.6582 498.845 73.0749 498.798 72.3082H501.158C501.191 72.7149 501.371 72.9182 501.698 72.9182C501.818 72.9182 501.918 72.8916 501.998 72.8382C502.085 72.7782 502.128 72.6882 502.128 72.5682C502.128 72.4016 502.038 72.2682 501.858 72.1682C501.678 72.0616 501.398 71.9416 501.018 71.8082C500.565 71.6482 500.188 71.4916 499.888 71.3382C499.595 71.1849 499.341 70.9616 499.128 70.6682C498.915 70.3749 498.811 69.9982 498.818 69.5382C498.818 69.0782 498.935 68.6882 499.168 68.3682C499.408 68.0416 499.731 67.7949 500.138 67.6282C500.551 67.4616 501.015 67.3782 501.528 67.3782C502.395 67.3782 503.081 67.5782 503.588 67.9782C504.101 68.3782 504.371 68.9416 504.398 69.6682H502.008C502.001 69.4682 501.951 69.3249 501.858 69.2382C501.765 69.1516 501.651 69.1082 501.518 69.1082C501.425 69.1082 501.348 69.1416 501.288 69.2082C501.228 69.2682 501.198 69.3549 501.198 69.4682C501.198 69.6282 501.285 69.7616 501.458 69.8682C501.638 69.9682 501.921 70.0916 502.308 70.2382C502.755 70.4049 503.121 70.5649 503.408 70.7182C503.701 70.8716 503.955 71.0849 504.168 71.3582C504.381 71.6316 504.488 71.9749 504.488 72.3882C504.488 72.8216 504.381 73.2116 504.168 73.5582C503.955 73.8982 503.645 74.1649 503.238 74.3582C502.831 74.5516 502.348 74.6482 501.788 74.6482ZM508.718 74.6482C508.051 74.6482 507.438 74.4916 506.878 74.1782C506.325 73.8649 505.885 73.4316 505.558 72.8782C505.231 72.3249 505.068 71.7016 505.068 71.0082C505.068 70.3149 505.231 69.6916 505.558 69.1382C505.885 68.5849 506.325 68.1549 506.878 67.8482C507.438 67.5349 508.051 67.3782 508.718 67.3782C509.385 67.3782 509.995 67.5349 510.548 67.8482C511.101 68.1549 511.538 68.5849 511.858 69.1382C512.185 69.6916 512.348 70.3149 512.348 71.0082C512.348 71.7016 512.185 72.3249 511.858 72.8782C511.538 73.4316 511.098 73.8649 510.538 74.1782C509.985 74.4916 509.378 74.6482 508.718 74.6482ZM516.599 74.6482C515.932 74.6482 515.319 74.4916 514.759 74.1782C514.206 73.8649 513.766 73.4316 513.439 72.8782C513.112 72.3249 512.949 71.7016 512.949 71.0082C512.949 70.3149 513.112 69.6916 513.439 69.1382C513.766 68.5849 514.206 68.1549 514.759 67.8482C515.319 67.5349 515.932 67.3782 516.599 67.3782C517.266 67.3782 517.876 67.5349 518.429 67.8482C518.982 68.1549 519.419 68.5849 519.739 69.1382C520.066 69.6916 520.229 70.3149 520.229 71.0082C520.229 71.7016 520.066 72.3249 519.739 72.8782C519.419 73.4316 518.979 73.8649 518.419 74.1782C517.866 74.4916 517.259 74.6482 516.599 74.6482ZM527.82 74.5782H525.6L523.25 71.0182V74.5782H521.03V67.4982H523.25L525.6 71.1182V67.4982H527.82V74.5782Z" fill="white"/>
<path d="M503.171 64.5782C503.611 64.5782 503.951 64.4382 504.191 64.1582C504.431 63.8716 504.551 63.4882 504.551 63.0082C504.551 62.5216 504.431 62.1382 504.191 61.8582C503.951 61.5716 503.611 61.4282 503.171 61.4282C502.724 61.4282 502.381 61.5716 502.141 61.8582C501.901 62.1382 501.781 62.5216 501.781 63.0082C501.781 63.4882 501.901 63.8716 502.141 64.1582C502.381 64.4382 502.724 64.5782 503.171 64.5782Z" stroke="white"/>
<path d="M508.718 72.5782C509.158 72.5782 509.498 72.4382 509.738 72.1582C509.978 71.8716 510.098 71.4882 510.098 71.0082C510.098 70.5216 509.978 70.1382 509.738 69.8582C509.498 69.5716 509.158 69.4282 508.718 69.4282C508.271 69.4282 507.928 69.5716 507.688 69.8582C507.448 70.1382 507.328 70.5216 507.328 71.0082C507.328 71.4882 507.448 71.8716 507.688 72.1582C507.928 72.4382 508.271 72.5782 508.718 72.5782Z" stroke="white"/>
<path d="M516.599 72.5782C517.039 72.5782 517.379 72.4382 517.619 72.1582C517.859 71.8716 517.979 71.4882 517.979 71.0082C517.979 70.5216 517.859 70.1382 517.619 69.8582C517.379 69.5716 517.039 69.4282 516.599 69.4282C516.152 69.4282 515.809 69.5716 515.569 69.8582C515.329 70.1382 515.209 70.5216 515.209 71.0082C515.209 71.4882 515.329 71.8716 515.569 72.1582C515.809 72.4382 516.152 72.5782 516.599 72.5782Z" stroke="white"/>
<path fill-rule="evenodd" clip-rule="evenodd" d="M559.921 0L577.939 10.5101L581.936 8.51162L611.911 25.5668L594.59 35.9594L622.92 52.0782L622.736 52.1838L639.396 62.076L614.42 77.0616L623.438 82.0716L621.504 83.1793L622.5 83.7461L638.5 93.2461L613.5 108.246L622.5 113.246L567.5 144.746L559 139.746L468 191.746L472.5 195.246L431.735 219.173L474.916 244.993L491.914 234.494L539.44 262.509L549.442 257.508L551.924 258.997L569.933 248.492L577.859 253.587L571.378 257.576L602.431 276.499L610.422 272.003L618.41 276.568L600.727 287.178L602.736 289.186L586.515 298.505L602.5 308.246L610.5 303.746L617.5 307.746L600 318.246L602 320.246L484.5 387.746L482 386.246L463.5 396.746L455 391.246L461.5 386.246L455 382.246L438.5 373.246L431.5 368.746L423.5 373.746L415 368.246L431.5 357.746L429.5 355.746L438 350.746L424.25 342.649L423.416 343.171L413.995 337.075L414.374 336.833L393 324.246L398.5 320.246L309.5 268.746L295 277.746L211.5 229.246L225.5 220.746L134.5 167.746L127 172.246L80 144.246L70.5 149.746L67.5 148.246L49.5 158.746L40.5 153.246L47.5 148.746L41 144.246L42 143.746L25.5 133.746L24 134.746L18 130.246L9.5 135.746L1 130.246L18 119.246L15.5 117.746L32.9461 107.724L25.4332 103.171L23.9034 104.19L17.8993 99.6874L9.42038 105.174L0 99.0782L16.9753 88.0942L14.4329 86.5689L132.926 18.4984L135.427 19.9993L153.947 9.48835L161.324 14.5958L155.871 18.0657L187.401 36.9835L193.893 32.4891L202.87 37.5388L187.202 48.1527L188.211 49.162L179.869 54.56L227.9 83.0782L211.901 92.5777L262.41 122.491L281.908 109.992L303.422 122.501L353.914 93.5053L359.412 96.5042L440.922 48.9988L457.923 58.9994L559.921 0ZM457.003 59.6187L393.42 97.0782L451.92 129.578L464.92 121.578L482.92 132.078L621.728 52.7595L622.165 53.0082L622.173 53.0128L637.445 62.0805L612.421 77.0949L621.403 82.0849L567.424 113L558.924 108L467.024 160.515L471.531 164.02L425.461 191.062L445.974 204.07L425.453 216.582L474.925 246.163L491.926 235.662L539.401 263.647L549.398 258.648L551.917 260.159L569.908 249.664L575.981 253.569L569.463 257.58L602.41 277.658L610.418 273.153L616.431 276.589L599.114 286.979L601.105 288.97L484.426 355.998L481.927 354.499L463.437 364.994L455.786 360.043L462.3 355.032L455.182 350.652L455.171 350.646L438.676 341.648L431.424 336.986L423.425 341.986L415.846 337.082L432.215 326.665L430.231 324.682L438.906 319.578L393.831 293.034L399.336 289.03L309.411 236.995L294.912 245.995L212.399 198.069L226.399 189.569L134.417 135.997L126.919 140.496L79.924 112.498L70.403 118.011L67.4021 116.51L49.4263 126.996L41.3617 122.068L48.321 117.594L41.8993 113.148L42.9544 112.62L25.4076 101.986L23.9374 102.966L17.9415 98.469L9.42038 103.983L1.84077 99.0782L18.8655 88.0622L16.4078 86.5876L132.915 19.658L135.413 21.1571L153.894 10.6681L159.517 14.5607L153.969 18.0907L187.44 38.173L193.948 33.6674L200.971 37.6177L185.639 48.0038L186.629 48.9944L177.972 54.5965L225.941 83.0782L209.94 92.5788L262.431 123.665L281.933 111.164L303.419 123.656L353.927 94.6512L359.429 97.6522L440.919 50.1576L457.003 59.6187ZM491.992 63.0282C491.992 62.3282 492.132 61.7049 492.412 61.1582C492.699 60.6116 493.105 60.1882 493.632 59.8882C494.159 59.5816 494.779 59.4282 495.492 59.4282C496.105 59.4282 496.652 59.5449 497.132 59.7782C497.619 60.0049 498.012 60.3282 498.312 60.7482C498.619 61.1682 498.822 61.6582 498.922 62.2182H496.582C496.475 61.9849 496.322 61.8049 496.122 61.6782C495.929 61.5449 495.705 61.4782 495.452 61.4782C495.079 61.4782 494.782 61.6182 494.562 61.8982C494.349 62.1782 494.242 62.5549 494.242 63.0282C494.242 63.5016 494.349 63.8782 494.562 64.1582C494.782 64.4382 495.079 64.5782 495.452 64.5782C495.705 64.5782 495.929 64.5149 496.122 64.3882C496.322 64.2549 496.475 64.0716 496.582 63.8382H498.922C498.822 64.3982 498.619 64.8882 498.312 65.3082C498.012 65.7282 497.619 66.0549 497.132 66.2882C496.652 66.5149 496.105 66.6282 495.492 66.6282C494.779 66.6282 494.159 66.4782 493.632 66.1782C493.105 65.8716 492.699 65.4449 492.412 64.8982C492.132 64.3516 491.992 63.7282 491.992 63.0282ZM503.171 66.6482C502.504 66.6482 501.891 66.4916 501.331 66.1782C500.778 65.8649 500.338 65.4316 500.011 64.8782C499.685 64.3249 499.521 63.7016 499.521 63.0082C499.521 62.3149 499.685 61.6916 500.011 61.1382C500.338 60.5849 500.778 60.1549 501.331 59.8482C501.891 59.5349 502.504 59.3782 503.171 59.3782C503.838 59.3782 504.448 59.5349 505.001 59.8482C505.555 60.1549 505.991 60.5849 506.311 61.1382C506.638 61.6916 506.801 62.3149 506.801 63.0082C506.801 63.7016 506.638 64.3249 506.311 64.8782C505.991 65.4316 505.551 65.8649 504.991 66.1782C504.438 66.4916 503.831 66.6482 503.171 66.6482ZM516.112 59.4982V66.5782H513.902V63.0482L512.812 66.5782H510.912L509.822 63.0482V66.5782H507.602V59.4982H510.322L511.882 63.7482L513.402 59.4982H516.112ZM519.334 59.4982V66.5782H517.114V59.4982H519.334ZM527.126 66.5782H524.906L522.556 63.0182V66.5782H520.336V59.4982H522.556L524.906 63.1182V59.4982H527.126V66.5782ZM532.469 61.9182C532.383 61.7782 532.259 61.6716 532.099 61.5982C531.939 61.5182 531.746 61.4782 531.519 61.4782C531.093 61.4782 530.763 61.6182 530.529 61.8982C530.296 62.1716 530.179 62.5482 530.179 63.0282C530.179 63.5816 530.309 63.9949 530.569 64.2682C530.829 64.5416 531.229 64.6782 531.769 64.6782C532.283 64.6782 532.696 64.4716 533.009 64.0582H531.239V62.4882H534.849V64.7082C534.543 65.2349 534.119 65.6882 533.579 66.0682C533.039 66.4416 532.356 66.6282 531.529 66.6282C530.796 66.6282 530.156 66.4782 529.609 66.1782C529.069 65.8716 528.653 65.4449 528.359 64.8982C528.073 64.3516 527.929 63.7282 527.929 63.0282C527.929 62.3282 528.073 61.7049 528.359 61.1582C528.653 60.6116 529.069 60.1882 529.609 59.8882C530.149 59.5816 530.783 59.4282 531.509 59.4282C532.436 59.4282 533.189 59.6516 533.769 60.0982C534.356 60.5449 534.703 61.1516 534.809 61.9182H532.469ZM501.788 74.6482C500.941 74.6482 500.241 74.4516 499.688 74.0582C499.141 73.6582 498.845 73.0749 498.798 72.3082H501.158C501.191 72.7149 501.371 72.9182 501.698 72.9182C501.818 72.9182 501.918 72.8916 501.998 72.8382C502.085 72.7782 502.128 72.6882 502.128 72.5682C502.128 72.4016 502.038 72.2682 501.858 72.1682C501.678 72.0616 501.398 71.9416 501.018 71.8082C500.565 71.6482 500.188 71.4916 499.888 71.3382C499.595 71.1849 499.341 70.9616 499.128 70.6682C498.915 70.3749 498.811 69.9982 498.818 69.5382C498.818 69.0782 498.935 68.6882 499.168 68.3682C499.408 68.0416 499.731 67.7949 500.138 67.6282C500.551 67.4616 501.015 67.3782 501.528 67.3782C502.395 67.3782 503.081 67.5782 503.588 67.9782C504.101 68.3782 504.371 68.9416 504.398 69.6682H502.008C502.001 69.4682 501.951 69.3249 501.858 69.2382C501.765 69.1516 501.651 69.1082 501.518 69.1082C501.425 69.1082 501.348 69.1416 501.288 69.2082C501.228 69.2682 501.198 69.3549 501.198 69.4682C501.198 69.6282 501.285 69.7616 501.458 69.8682C501.638 69.9682 501.921 70.0916 502.308 70.2382C502.755 70.4049 503.121 70.5649 503.408 70.7182C503.701 70.8716 503.955 71.0849 504.168 71.3582C504.381 71.6316 504.488 71.9749 504.488 72.3882C504.488 72.8216 504.381 73.2116 504.168 73.5582C503.955 73.8982 503.645 74.1649 503.238 74.3582C502.831 74.5516 502.348 74.6482 501.788 74.6482ZM508.718 74.6482C508.051 74.6482 507.438 74.4916 506.878 74.1782C506.325 73.8649 505.885 73.4316 505.558 72.8782C505.231 72.3249 505.068 71.7016 505.068 71.0082C505.068 70.3149 505.231 69.6916 505.558 69.1382C505.885 68.5849 506.325 68.1549 506.878 67.8482C507.438 67.5349 508.051 67.3782 508.718 67.3782C509.385 67.3782 509.995 67.5349 510.548 67.8482C511.101 68.1549 511.538 68.5849 511.858 69.1382C512.185 69.6916 512.348 70.3149 512.348 71.0082C512.348 71.7016 512.185 72.3249 511.858 72.8782C511.538 73.4316 511.098 73.8649 510.538 74.1782C509.985 74.4916 509.378 74.6482 508.718 74.6482ZM516.599 74.6482C515.932 74.6482 515.319 74.4916 514.759 74.1782C514.206 73.8649 513.766 73.4316 513.439 72.8782C513.112 72.3249 512.949 71.7016 512.949 71.0082C512.949 70.3149 513.112 69.6916 513.439 69.1382C513.766 68.5849 514.206 68.1549 514.759 67.8482C515.319 67.5349 515.932 67.3782 516.599 67.3782C517.266 67.3782 517.876 67.5349 518.429 67.8482C518.982 68.1549 519.419 68.5849 519.739 69.1382C520.066 69.6916 520.229 70.3149 520.229 71.0082C520.229 71.7016 520.066 72.3249 519.739 72.8782C519.419 73.4316 518.979 73.8649 518.419 74.1782C517.866 74.4916 517.259 74.6482 516.599 74.6482ZM527.82 74.5782H525.6L523.25 71.0182V74.5782H521.03V67.4982H523.25L525.6 71.1182V67.4982H527.82V74.5782Z" stroke="white"/>
</svg>
