<svg width="150" height="188" viewBox="0 0 150 188" fill="none" xmlns="http://www.w3.org/2000/svg">
<path d="M0 0H10.9578L19.8701 18.1169L28.7825 0H39.7403V34.0909H30.974V13.7338L24.3994 26.9318H15.3409L8.76623 13.7338V34.0909H0V0Z" fill="white"/>
<path d="M53.3774 0V18.7013C53.3774 20 53.5722 21.1201 53.9618 22.0617C54.3514 23.0033 54.8709 23.7825 55.5202 24.3994C56.2021 25.0162 56.9975 25.4708 57.9066 25.763C58.8157 26.0552 59.806 26.2013 60.8774 26.2013C61.9488 26.2013 62.9391 26.0552 63.8482 25.763C64.7573 25.4708 65.5365 25.0162 66.1858 24.3994C66.8676 23.7825 67.4034 23.0033 67.793 22.0617C68.1826 21.1201 68.3774 20 68.3774 18.7013V0H77.1436V18.2143C77.1436 20.8442 76.7378 23.1656 75.9261 25.1786C75.1144 27.1916 73.9943 28.8961 72.5657 30.2922C71.1371 31.6559 69.4163 32.6948 67.4034 33.4091C65.4228 34.1234 63.2475 34.4805 60.8774 34.4805C58.5073 34.4805 56.3157 34.1234 54.3027 33.4091C52.3222 32.6948 50.6176 31.6559 49.1891 30.2922C47.7605 28.8961 46.6404 27.1916 45.8287 25.1786C45.017 23.1656 44.6112 20.8442 44.6112 18.2143V0H53.3774Z" fill="white"/>
<path d="M81.9932 0H90.7594V25.8117H107.805V34.0909H81.9932V0Z" fill="white"/>
<path d="M117.12 8.27922H106.844V0H136.114V8.27922H125.886V34.0909H117.12V8.27922Z" fill="white"/>
<path d="M140.99 0H150V34.0909H140.99V0Z" fill="white"/>
<path d="M0 39.5698H8.76623V65.3815H25.8117V73.6607H0V39.5698Z" fill="white"/>
<path d="M29.7249 55.6899C29.7249 53.0601 30.1308 50.7224 30.9424 48.677C31.7866 46.6315 32.9392 44.9107 34.4002 43.5146C35.8937 42.086 37.647 41.0146 39.66 40.3003C41.673 39.5536 43.8645 39.1802 46.2347 39.1802C48.6048 39.1802 50.7963 39.5536 52.8093 40.3003C54.8223 41.0146 56.5593 42.086 58.0204 43.5146C59.5139 44.9107 60.6665 46.6315 61.4782 48.677C62.3223 50.7224 62.7444 53.0601 62.7444 55.6899V73.6607H53.9782V67.8166H38.4911V73.6607H29.7249V55.6899ZM53.9782 59.7809V55.2029C53.9782 53.9042 53.7671 52.7679 53.345 51.7938C52.9554 50.8198 52.4035 50.0244 51.6892 49.4075C50.9749 48.7581 50.147 48.2711 49.2054 47.9464C48.2963 47.6218 47.3061 47.4594 46.2347 47.4594C45.1632 47.4594 44.1567 47.6218 43.2152 47.9464C42.3061 48.2711 41.4944 48.7581 40.7801 49.4075C40.0658 50.0244 39.4976 50.8198 39.0756 51.7938C38.686 52.7679 38.4911 53.9042 38.4911 55.2029V59.7809H53.9782Z" fill="white"/>
<path d="M67.6301 39.5698H81.997C86.4451 39.5698 89.8541 40.3328 92.2243 41.8588C94.6269 43.3523 95.8282 45.7711 95.8282 49.1153C95.8282 50.9659 95.4873 52.4919 94.8055 53.6932C94.1236 54.862 93.2145 55.6575 92.0782 56.0796C93.7665 56.4367 95.1301 57.2971 96.1691 58.6607C97.2405 59.9919 97.7762 61.8588 97.7762 64.2614C97.7762 67.5406 96.5749 69.927 94.1723 71.4205C91.8022 72.914 88.3931 73.6607 83.9451 73.6607H67.6301V39.5698ZM81.997 52.7192C82.6464 52.7192 83.2795 52.6867 83.8964 52.6218C84.5132 52.5568 85.049 52.427 85.5035 52.2321C85.9905 52.0373 86.3639 51.7614 86.6236 51.4042C86.9158 51.0471 87.0619 50.5763 87.0619 49.9919C87.0619 49.4075 86.9158 48.9529 86.6236 48.6283C86.3639 48.2711 85.9905 47.9951 85.5035 47.8003C85.049 47.6055 84.5132 47.4919 83.8964 47.4594C83.2795 47.3945 82.6464 47.362 81.997 47.362H76.3964V52.7192H81.997ZM83.9451 65.8685C84.5944 65.8685 85.2275 65.8523 85.8444 65.8198C86.4613 65.7549 86.997 65.625 87.4516 65.4302C87.9386 65.2354 88.3119 64.9757 88.5717 64.651C88.8639 64.2938 89.01 63.8231 89.01 63.2386C89.01 62.6542 88.8639 62.1835 88.5717 61.8263C88.3119 61.4692 87.9386 61.1932 87.4516 60.9984C86.997 60.8036 86.4613 60.6737 85.8444 60.6088C85.2275 60.5438 84.5944 60.5114 83.9451 60.5114H76.3964V65.8685H83.9451Z" fill="white"/>
<path fill-rule="evenodd" clip-rule="evenodd" d="M0 79.6602H36C45.5478 79.6602 54.7045 83.453 61.4558 90.2043C68.2072 96.9556 72 106.112 72 115.66C72 125.208 68.2072 134.365 61.4558 141.116C54.7045 147.867 45.5478 151.66 36 151.66H17H0V134.66V133.66H36C40.7739 133.66 45.3523 131.764 48.7279 128.388C52.1036 125.012 54 120.434 54 115.66C54 110.886 52.1036 106.308 48.7279 102.932C45.3523 99.5566 40.7739 97.6602 36 97.6602H0V79.6602ZM72 169.66V187.66H0V169.66H72Z" fill="white"/>
<path fill-rule="evenodd" clip-rule="evenodd" d="M78 115.66V79.6602H96V115.66C96 120.434 97.8964 125.012 101.272 128.388C104.648 131.764 109.226 133.66 114 133.66C118.774 133.66 123.352 131.764 126.728 128.388C130.104 125.012 132 120.434 132 115.66V79.6602H150V115.66V187.66H132V146.837C126.574 149.97 120.374 151.66 114 151.66C104.452 151.66 95.2955 147.867 88.5442 141.116C81.7928 134.365 78 125.208 78 115.66Z" fill="white"/>
</svg>
