<svg width="195" height="66" viewBox="0 0 195 66" fill="none" xmlns="http://www.w3.org/2000/svg">
<g clip-path="url(#clip0_26_37)">
<path d="M12 0H0V6H12C13.5913 6 15.1174 6.63214 16.2427 7.75736C17.3679 8.88258 18 10.4087 18 12C18 13.5913 17.3679 15.1174 16.2427 16.2426C15.1174 17.3679 13.5913 18 12 18H0V24H12C15.1826 24 18.2349 22.7357 20.4853 20.4853C22.7357 18.2348 24 15.1826 24 12C24 8.8174 22.7357 5.76515 20.4853 3.51472C18.2349 1.26428 15.1826 0 12 0Z" fill="white"/>
<path d="M0 30V36H24V42C24 45.1826 25.2643 48.2348 27.5147 50.4853C29.7652 52.7357 32.8174 54 36 54C38.1247 54 40.1913 53.4365 42 52.3923V66H48V30H42V42C42 43.5913 41.3679 45.1174 40.2427 46.2426C39.1174 47.3679 37.5913 48 36 48C34.4087 48 32.8826 47.3679 31.7574 46.2426C30.6322 45.1174 30 43.5913 30 42V30H0Z" fill="white"/>
<path d="M60 0H69.8182L77.8036 16.2327L85.7891 0H95.6073V30.5455H87.7527V12.3055L81.8618 24.1309H73.7455L67.8545 12.3055V30.5455H60V0Z" fill="white"/>
<path d="M107.826 0V16.7564C107.826 17.92 108.001 18.9236 108.35 19.7673C108.699 20.6109 109.164 21.3091 109.746 21.8618C110.357 22.4145 111.07 22.8218 111.884 23.0836C112.699 23.3455 113.586 23.4764 114.546 23.4764C115.506 23.4764 116.393 23.3455 117.208 23.0836C118.023 22.8218 118.721 22.4145 119.303 21.8618C119.913 21.3091 120.393 20.6109 120.742 19.7673C121.092 18.9236 121.266 17.92 121.266 16.7564V0H129.121V16.32C129.121 18.6764 128.757 20.7564 128.03 22.56C127.302 24.3636 126.299 25.8909 125.019 27.1418C123.739 28.3636 122.197 29.2945 120.393 29.9345C118.619 30.5745 116.67 30.8945 114.546 30.8945C112.422 30.8945 110.459 30.5745 108.655 29.9345C106.881 29.2945 105.353 28.3636 104.073 27.1418C102.793 25.8909 101.79 24.3636 101.062 22.56C100.335 20.7564 99.9716 18.6764 99.9716 16.32V0H107.826Z" fill="white"/>
<path d="M133.466 0H141.32V23.1273H156.593V30.5455H133.466V0Z" fill="white"/>
<path d="M164.94 7.41818H155.732V0H181.958V7.41818H172.794V30.5455H164.94V7.41818Z" fill="white"/>
<path d="M186.327 0H194.4V30.5455H186.327V0Z" fill="white"/>
<path d="M60 35.4545H67.8545V58.5818H83.1273V66H60V35.4545Z" fill="white"/>
<path d="M86.6335 49.8982C86.6335 47.5418 86.9972 45.4473 87.7244 43.6145C88.4808 41.7818 89.5135 40.24 90.8226 38.9891C92.1608 37.7091 93.7317 36.7491 95.5353 36.1091C97.339 35.44 99.3026 35.1055 101.426 35.1055C103.55 35.1055 105.514 35.44 107.317 36.1091C109.121 36.7491 110.677 37.7091 111.986 38.9891C113.324 40.24 114.357 41.7818 115.084 43.6145C115.841 45.4473 116.219 47.5418 116.219 49.8982V66H108.364V60.7636H94.4881V66H86.6335V49.8982ZM108.364 53.5636V49.4618C108.364 48.2982 108.175 47.28 107.797 46.4073C107.448 45.5345 106.954 44.8218 106.314 44.2691C105.674 43.6873 104.932 43.2509 104.088 42.96C103.274 42.6691 102.386 42.5236 101.426 42.5236C100.466 42.5236 99.5644 42.6691 98.7208 42.96C97.9062 43.2509 97.179 43.6873 96.539 44.2691C95.899 44.8218 95.3899 45.5345 95.0117 46.4073C94.6626 47.28 94.4881 48.2982 94.4881 49.4618V53.5636H108.364Z" fill="white"/>
<path d="M120.597 35.4545H133.469C137.455 35.4545 140.509 36.1382 142.633 37.5055C144.786 38.8436 145.862 41.0109 145.862 44.0073C145.862 45.6655 145.557 47.0327 144.946 48.1091C144.335 49.1564 143.52 49.8691 142.502 50.2473C144.015 50.5673 145.237 51.3382 146.167 52.56C147.127 53.7527 147.607 55.4255 147.607 57.5782C147.607 60.5164 146.531 62.6545 144.378 63.9927C142.255 65.3309 139.2 66 135.215 66H120.597V35.4545ZM133.469 47.2364C134.051 47.2364 134.618 47.2073 135.171 47.1491C135.724 47.0909 136.204 46.9745 136.611 46.8C137.048 46.6255 137.382 46.3782 137.615 46.0582C137.877 45.7382 138.008 45.3164 138.008 44.7927C138.008 44.2691 137.877 43.8618 137.615 43.5709C137.382 43.2509 137.048 43.0036 136.611 42.8291C136.204 42.6545 135.724 42.5527 135.171 42.5236C134.618 42.4655 134.051 42.4364 133.469 42.4364H128.451V47.2364H133.469ZM135.215 59.0182C135.797 59.0182 136.364 59.0036 136.917 58.9745C137.469 58.9164 137.949 58.8 138.357 58.6255C138.793 58.4509 139.127 58.2182 139.36 57.9273C139.622 57.6073 139.753 57.1855 139.753 56.6618C139.753 56.1382 139.622 55.7164 139.36 55.3964C139.127 55.0764 138.793 54.8291 138.357 54.6545C137.949 54.48 137.469 54.3636 136.917 54.3055C136.364 54.2473 135.797 54.2182 135.215 54.2182H128.451V59.0182H135.215Z" fill="white"/>
</g>
<defs>
<clipPath id="clip0_26_37">
<rect width="195" height="66" fill="white"/>
</clipPath>
</defs>
</svg>
